<svg xmlns="http://www.w3.org/2000/svg" width="800" height="200" padding= "30">
    <!-- Horizontal lines -->
      <line x1="0" y1="15" x2="1040" y2="15" stroke="black" stroke-width="1" />
      <line x1="0" y1="30" x2="1040" y2="30" stroke="black" stroke-width="1" />
      <line x1="0" y1="45" x2="1040" y2="45" stroke="black" stroke-width="1" />
      <line x1="0" y1="60" x2="1040" y2="60" stroke="black" stroke-width="1" />
      <line x1="0" y1="75" x2="1040" y2="75" stroke="black" stroke-width="1" />
      <line x1="0" y1="90" x2="1040" y2="90" stroke="black" stroke-width="1" />
    
      <!-- Vertical lines -->
      <line x1="725" y1="10" x2="725" y2="200" stroke="black" stroke-width="1" />
      <line x1="740" y1="10" x2="740" y2="200" stroke="black" stroke-width="1" />
      <line x1="755" y1="10" x2="755" y2="200" stroke="black" stroke-width="1" />
      <line x1="770" y1="10" x2="770" y2="200" stroke="black" stroke-width="1" />
      <line x1="785" y1="10" x2="785" y2="200" stroke="black" stroke-width="1" />
      <line x1="800" y1="10" x2="800" y2="200" stroke="black" stroke-width="1" />
    
      <!-- Shaft Numbers -->
      <text x="0" y="28" font-family="Arial" font-size="14" fill="black">Shaft1</text>
      <text x="0" y="43" font-family="Arial" font-size="14" fill="black">Shaft2</text>
      <text x="0" y="58" font-family="Arial" font-size="14" fill="black">Shaft3</text>
      <text x="0" y="73" font-family="Arial" font-size="14" fill="black">Shaft4</text>
      <text x="0" y="88" font-family="Arial" font-size="14" fill="black">Shaft5</text>
    
      <!-- Pedal Numbers -->
      <text x="788" y="100" font-family="Arial" font-size="14" fill="black" transform="rotate(90 788 100)">Pedal1</text>
      <text x="773" y="100" font-family="Arial" font-size="14" fill="black" transform="rotate(90 773 100)">Pedal2</text>
      <text x="758" y="100" font-family="Arial" font-size="14" fill="black" transform="rotate(90 758 100)">Pedal3</text>
      <text x="743" y="100" font-family="Arial" font-size="14" fill="black" transform="rotate(90 743 100)">Pedal4</text>
      <text x="728" y="100" font-family="Arial" font-size="14" fill="black" transform="rotate(90 728 100)">Pedal5</text>
    
      <!-- Alphabet Shaft1-->
      <text x="50" y="28" font-family="Arial" font-size="14" fill="black">A, a</text>
      <text x="150" y="28" font-family="Arial" font-size="14" fill="black">F, f</text>
      <text x="250" y="28" font-family="Arial" font-size="14" fill="black">K, k</text>
      <text x="350" y="28" font-family="Arial" font-size="14" fill="black">P, p</text>
      <text x="450" y="28" font-family="Arial" font-size="14" fill="black">U, u</text>
      <text x="550" y="28" font-family="Arial" font-size="14" fill="black">Z, z</text>
      <!-- Alphabet Shaft2-->
      <text x="80" y="43" font-family="Arial" font-size="14" fill="black">B, b</text>
      <text x="180" y="43" font-family="Arial" font-size="14" fill="black">G, g</text>
      <text x="280" y="43" font-family="Arial" font-size="14" fill="black">L, l</text>
      <text x="380" y="43" font-family="Arial" font-size="14" fill="black">Q, q</text>
      <text x="480" y="43" font-family="Arial" font-size="14" fill="black">V, v</text>
      <!-- Alphabet Shaft3-->
      <text x="110" y="58" font-family="Arial" font-size="14" fill="black">C, c</text>
      <text x="210" y="58" font-family="Arial" font-size="14" fill="black">H, h</text>
      <text x="310" y="58" font-family="Arial" font-size="14" fill="black">M, m</text>
      <text x="410" y="58" font-family="Arial" font-size="14" fill="black">R, r</text>
      <text x="510" y="58" font-family="Arial" font-size="14" fill="black">W, w</text>
      <!-- Alphabet Shaft4-->
      <text x="140" y="73" font-family="Arial" font-size="14" fill="black">D, d</text>
      <text x="240" y="73" font-family="Arial" font-size="14" fill="black">I, İ</text>
      <text x="340" y="73" font-family="Arial" font-size="14" fill="black">N, n</text>
      <text x="440" y="73" font-family="Arial" font-size="14" fill="black">S, s</text>
      <text x="540" y="73" font-family="Arial" font-size="14" fill="black">X, x</text>
      <!-- Alphabet Shaft4-->
      <text x="170" y="88" font-family="Arial" font-size="14" fill="black">E, e</text>
      <text x="270" y="88" font-family="Arial" font-size="14" fill="black">J, j</text>
      <text x="370" y="88" font-family="Arial" font-size="14" fill="black">O, o</text>
      <text x="470" y="88" font-family="Arial" font-size="14" fill="black">T, t</text>
      <text x="570" y="88" font-family="Arial" font-size="14" fill="black">Y, y</text>
</svg>